<svg xmlns="http://www.w3.org/2000/svg" width="1500" height="500"><path fill="#393E46" d="M0 0h1500v500H0z"/><path d="M314.698 365.466h-48.583v-232.55H372.35c45.02 0 72.227 28.825 72.227 74.493 0 21.052-11.66 74.169-74.171 74.169h-55.708v83.888zm45.021-124.049c36.275 0 36.275-25.911 36.275-36.275 0-22.672-12.632-32.064-42.754-32.064h-38.542v68.34h45.021zm118.541-48.259h43.4v29.799h.646c9.395-17.49 19.758-34.333 47.288-34.333 2.915 0 5.83.323 8.745.647v45.992c-3.887-.648-8.745-.648-12.956-.648-35.303 0-41.78 22.024-41.78 41.133v89.718H478.26V193.158zM676.155 370c-46.315 0-88.097-28.501-88.097-90.688 0-62.186 41.781-90.688 88.097-90.688 46.316 0 88.097 28.503 88.097 90.688 0 62.187-41.78 90.688-88.097 90.688zm0-143.157c-34.979 0-41.457 30.445-41.457 52.47 0 22.023 6.478 52.469 41.457 52.469s41.458-30.445 41.458-52.469c0-22.025-6.478-52.47-41.458-52.47zm172.306 138.623h-45.344V225.547h-24.939v-32.389h24.939v-13.927c0-35.628 19.434-49.231 50.527-49.231 13.278 0 19.432.323 23.318.648v36.599h-12.631c-15.547 0-15.871 4.858-15.871 19.109v6.802h29.474v32.389H848.46v139.919zm102.023-192.712H905.14v-42.105h45.345v42.105zm0 20.404v172.308H905.14V193.158h45.344zm90.04 172.308H995.18v-232.55h45.344v232.55zm191.416-50.527c-11.982 41.457-46.314 55.061-75.788 55.061-48.584 0-85.83-23.319-85.83-94.252 0-20.728 7.125-87.124 82.592-87.124 34.008 0 80.971 16.194 80.971 94.898v8.097h-118.219c1.296 12.956 3.887 42.105 40.486 42.105 12.631 0 25.586-6.479 29.148-18.785h46.64zm-44.695-52.793c-2.591-27.855-20.404-36.275-34.979-36.275-21.377 0-32.713 13.604-35.304 36.275h70.283z" fill="#FFF"/></svg>